HIERARCHY
ROOT Hips
{
	OFFSET 0.000000 8.830580 0.000000
	CHANNELS 6 Xposition Yposition Zposition Zrotation Yrotation Xrotation 
	JOINT Spine
	{
		OFFSET 0.000000 0.010000 0.000000
		CHANNELS 3 Zrotation Yrotation Xrotation
		JOINT Spine1
		{
			OFFSET 0.000000 2.459130 0.000000
			CHANNELS 3 Zrotation Yrotation Xrotation
			JOINT Neck
			{
				OFFSET 0.000000 2.484630 0.000000
				CHANNELS 3 Zrotation Yrotation Xrotation
				JOINT Head_virtual
				{
					OFFSET 0.000000 0.000000 0.000000
					CHANNELS 3 Zrotation Yrotation Xrotation
					JOINT Head
					{
						OFFSET 0.000000 0.927525 0.000000
						CHANNELS 3 Zrotation Yrotation Xrotation
						End Site
						{
							OFFSET 0.000000 0.000000 0.000000
						}
					}
				}
				JOINT LeftUpArm_virtual
				{
					OFFSET 0.000000 0.000000 0.000000
					CHANNELS 3 Zrotation Yrotation Xrotation
					JOINT LeftUpArm
					{
						OFFSET 1.248820 0.000000 0.000000
						CHANNELS 3 Zrotation Yrotation Xrotation
						JOINT LeftForeArm
						{
							OFFSET 2.597580 0.000000 0.000000
							CHANNELS 3 Zrotation Yrotation Xrotation
							JOINT LeftHand
							{
								OFFSET 2.455420 0.000000 0.000000
								CHANNELS 3 Zrotation Yrotation Xrotation
								End Site
								{
									OFFSET 0.000000 0.000000 0.000000
								}
							}
						}
					}
				}
				JOINT RightUpArm_virtual
				{
					OFFSET -0.000000 -0.000000 -0.000000
					CHANNELS 3 Zrotation Yrotation Xrotation
					JOINT RightUpArm
					{
						OFFSET -1.248820 -0.000000 -0.000000
						CHANNELS 3 Zrotation Yrotation Xrotation
						JOINT RightForeArm
						{
							OFFSET -2.597580 -0.000000 -0.000000
							CHANNELS 3 Zrotation Yrotation Xrotation
							JOINT RightHand
							{
								OFFSET -2.455420 -0.000000 -0.000000
								CHANNELS 3 Zrotation Yrotation Xrotation
								End Site
								{
									OFFSET 0.000000 0.000000 0.000000
								}
							}
						}
					}
				}
			}
		}
	}
	JOINT LeftUpLeg
	{
		OFFSET 1.271939 0.000000 0.000000
		CHANNELS 3 Zrotation Yrotation Xrotation
		JOINT LeftLowLeg
		{
			OFFSET 0.000000 -4.342910 0.000000
			CHANNELS 3 Zrotation Yrotation Xrotation
			JOINT LeftFoot
			{
				OFFSET 0.000000 -4.487670 0.000000
				CHANNELS 3 Zrotation Yrotation Xrotation
				JOINT LeftToeBase
				{
					OFFSET 0.000000 0.000000 1.515070
					CHANNELS 3 Zrotation Yrotation Xrotation
					End Site
					{
						OFFSET 0.000000 0.000000 0.000000
					}
				}
			}
		}
	}
	JOINT RightUpLeg
	{
		OFFSET -1.271939 0.000000 0.000000
		CHANNELS 3 Zrotation Yrotation Xrotation
		JOINT RightLowLeg
		{
			OFFSET 0.000000 -4.342910 0.000000
			CHANNELS 3 Zrotation Yrotation Xrotation
			JOINT RightFoot
			{
				OFFSET 0.000000 -4.487670 0.000000
				CHANNELS 3 Zrotation Yrotation Xrotation
				JOINT RightToeBase
				{
					OFFSET 0.000000 0.000000 1.515070
					CHANNELS 3 Zrotation Yrotation Xrotation
					End Site
					{
						OFFSET 0.000000 0.000000 0.000000
					}
				}
			}
		}
	}
}
MOTION
Frames: 10
Frame Time: 0.041667
-19.016228 9.232824 48.208998 -174.022690 14.135137 174.960183 9.191615 -9.136734 -13.455872 -7.413193 4.541097 26.382381 0.000000 0.000000 0.000000 4.377291 -2.816666 23.582101 5.124559 8.518455 -64.932809 -18.424400 -0.503025 -12.801500 -14.511800 -13.388500 2.423880 180.000000 -86.765503 -180.000000 -15.201700 -9.943890 -51.684700 24.266600 -2.176260 -3.972050 16.570200 12.411600 -10.436600 0.000000 86.476799 0.000000 16.080900 11.651600 -50.371601 2.125680 16.415308 9.163979 0.000000 0.000000 6.717010 -2.926078 11.912997 4.045471 0.000000 0.000000 -8.770000 1.573008 6.089546 -5.406286 0.000000 0.000000 14.658800 18.279899 -25.342272 14.416796 0.000000 0.000000 -11.816430 
-19.014143 9.232611 48.207276 -174.044100 14.189175 174.967736 9.158806 -9.154655 -13.394021 -7.383230 4.519403 26.252731 0.000000 0.000000 0.000000 4.298867 -2.715670 23.765802 5.147301 8.461961 -64.997677 -18.459700 -0.440027 -12.708500 -14.478600 -13.380200 2.360410 180.000000 -86.777901 -180.000000 -15.329800 -9.984900 -51.665600 24.271200 -2.087280 -3.853430 16.620600 12.534500 -10.400500 0.000000 86.431099 0.000000 15.824900 11.635200 -50.575500 2.121529 16.471392 9.132556 0.000000 0.000000 6.796530 -2.941402 11.899145 4.023290 0.000000 0.000000 -8.654010 1.560116 6.097710 -5.425267 0.000000 0.000000 14.686600 18.274594 -25.282493 14.400863 0.000000 0.000000 -11.844150 
-19.011508 9.232329 48.204392 -174.058860 14.246263 174.974761 9.129584 -9.161283 -13.370759 -7.309103 4.540386 26.234477 0.000000 0.000000 0.000000 4.234805 -2.659558 23.848522 5.199459 8.387559 -65.062183 -18.473400 -0.420925 -12.688400 -14.493600 -13.346500 2.340290 180.000000 -86.738297 -180.000000 -15.331100 -9.959380 -51.627800 24.266399 -2.080200 -3.788540 16.661800 12.658000 -10.354000 0.000000 86.483803 0.000000 15.552000 11.476100 -50.846802 2.127149 16.524030 9.130239 0.000000 0.000000 6.836370 -2.953341 11.916381 4.010974 0.000000 0.000000 -8.711460 1.555947 6.113246 -5.429749 0.000000 0.000000 14.707600 18.314003 -25.219964 14.354152 0.000000 0.000000 -11.815780 
-19.008736 9.232358 48.201153 -174.065414 14.289345 174.979718 9.094997 -9.177148 -13.363360 -7.201532 4.577823 26.289561 0.000000 0.000000 0.000000 4.167676 -2.588542 23.891494 5.231726 8.326766 -65.110949 -18.507900 -0.383237 -12.706600 -14.530900 -13.382400 2.309010 180.000000 -86.693497 -180.000000 -15.345900 -9.885000 -51.588001 24.237700 -2.079060 -3.768570 16.736000 12.781000 -10.352400 0.000000 86.544296 0.000000 15.388300 11.313800 -51.111198 2.139066 16.549431 9.124078 0.000000 0.000000 6.892180 -3.018517 11.936960 3.966710 0.000000 0.000000 -8.629440 1.560898 6.161286 -5.420785 0.000000 0.000000 14.714700 18.320036 -25.206765 14.328925 0.000000 0.000000 -11.841020 
-19.005874 9.232697 48.197372 -174.062974 14.307032 174.977824 9.083841 -9.189715 -13.374587 -7.123845 4.608591 26.387270 0.000000 0.000000 0.000000 4.138413 -2.563552 23.923627 5.262303 8.289319 -65.130912 -18.498400 -0.399749 -12.769600 -14.601400 -13.346300 2.283830 180.000000 -86.617401 -180.000000 -15.293100 -9.743870 -51.418598 24.219299 -2.043830 -3.784890 16.830799 12.809900 -10.416600 0.000000 86.588799 0.000000 15.406100 11.407000 -51.202801 2.165477 16.586658 9.109960 0.000000 0.000000 6.983520 -3.032015 11.934144 3.946940 0.000000 0.000000 -8.631560 1.576165 6.215605 -5.397613 0.000000 0.000000 14.720600 18.365290 -25.225099 14.286031 0.000000 0.000000 -11.822330 
-19.002486 9.233453 48.193624 -174.059616 14.299225 174.974546 9.013744 -9.258073 -13.365770 -6.923555 4.645252 26.485838 0.000000 0.000000 0.000000 4.078057 -2.533101 23.978614 5.269062 8.213797 -65.226679 -18.556000 -0.383063 -12.846500 -14.689600 -13.365900 2.269150 -180.000000 -86.570297 180.000000 -15.339300 -9.684580 -51.452999 24.164200 -2.086670 -3.795860 16.900900 12.889400 -10.469700 0.000000 86.702904 0.000000 15.360900 11.235200 -51.231400 2.196855 16.619144 9.059592 0.000000 0.000000 7.139590 -3.072891 11.914655 3.913233 0.000000 0.000000 -8.627240 1.595316 6.272555 -5.388091 0.000000 0.000000 14.763300 18.416423 -25.267073 14.233956 0.000000 0.000000 -11.812530 
-18.998903 9.234302 48.190710 -174.059579 14.290339 174.971624 8.920612 -9.356118 -13.330033 -6.687604 4.665467 26.543695 0.000000 0.000000 0.000000 4.002808 -2.499249 24.016306 5.230570 8.110518 -65.219955 -18.639500 -0.358797 -12.842600 -14.764100 -13.396900 2.159900 -180.000000 -86.565002 180.000000 -15.387500 -9.679370 -51.431499 24.098301 -2.077780 -3.741770 16.945801 12.942900 -10.551600 0.000000 86.815697 0.000000 15.219800 11.120400 -51.228600 2.195559 16.514017 8.966548 0.000000 0.000000 7.347760 -3.108199 12.029461 3.873587 0.000000 0.000000 -8.619980 1.615294 6.286363 -5.404724 0.000000 0.000000 14.837100 18.400952 -25.298889 14.226521 0.000000 0.000000 -11.830510 
-18.994490 9.235175 48.187781 -174.057455 14.261274 174.962968 8.807908 -9.461383 -13.270352 -6.422506 4.689783 26.581845 0.000000 0.000000 0.000000 3.911244 -2.421444 24.149394 5.308406 7.999253 -65.307384 -18.703501 -0.355504 -12.837800 -14.839100 -13.401100 2.104240 -180.000000 -86.528198 180.000000 -15.325300 -9.663880 -51.568501 24.008900 -2.119310 -3.759140 17.042101 12.997400 -10.593300 0.000000 86.856598 0.000000 15.239200 11.236100 -51.353500 2.222173 16.507491 8.850482 0.000000 0.000000 7.621690 -3.114424 12.042820 3.823673 0.000000 0.000000 -8.636670 1.641487 6.251851 -5.421498 0.000000 0.000000 14.929300 18.384968 -25.312075 14.220068 0.000000 0.000000 -11.875570 
-18.989812 9.235763 48.184451 -174.051275 14.240964 174.947643 8.713539 -9.546759 -13.210399 -6.192571 4.711023 26.596475 0.000000 0.000000 0.000000 3.809023 -2.315272 24.298655 5.435722 7.878511 -65.370242 -18.740801 -0.404693 -12.860700 -14.882600 -13.346600 2.094700 -180.000000 -86.495102 180.000000 -15.280300 -9.597180 -51.542900 23.899900 -2.120500 -3.740080 17.135799 13.010900 -10.645800 0.000000 86.881599 0.000000 15.295900 11.332800 -51.476101 2.268366 16.557009 8.787013 0.000000 0.000000 7.822280 -3.131614 12.017007 3.769419 0.000000 0.000000 -8.618810 1.670994 6.226168 -5.433706 0.000000 0.000000 15.031800 18.403718 -25.311429 14.187590 0.000000 0.000000 -11.857310 
-18.985057 9.236258 48.180769 -174.049069 14.218835 174.932860 8.639274 -9.625377 -13.139619 -6.015429 4.711721 26.590378 0.000000 0.000000 0.000000 3.735950 -2.264137 24.489791 5.439364 7.795386 -65.495426 -18.784401 -0.387773 -12.898500 -14.904100 -13.355900 2.087680 180.000000 -86.470299 -180.000000 -15.296000 -9.533500 -51.521702 23.834299 -2.106380 -3.674040 17.159201 13.041800 -10.723900 0.000000 86.921204 0.000000 15.348300 11.332000 -51.580002 2.294213 16.522028 8.754681 0.000000 0.000000 7.960580 -3.087269 12.074707 3.753560 0.000000 0.000000 -8.642650 1.695583 6.212469 -5.447225 0.000000 0.000000 15.148100 18.416439 -25.334875 14.143322 0.000000 0.000000 -11.840660 
